<?xml version="1.0" encoding="UTF-8"?>
<svg width="184.32mm" height="45.078mm" version="1.1" viewBox="0 0 184.32 45.078" xml:space="preserve" xmlns="http://www.w3.org/2000/svg"><g transform="translate(-11.671 -9.551)"><g transform="matrix(.63372 0 0 .63372 5.8919 -2.265)" stroke-width="1.578"><g transform="translate(-4.6958 1.1677)" fill-rule="evenodd" stroke-width="1.578"><path d="m43.655 41.677 7.9384 5.8366 12.079-0.10625 21.252 17.051-10.168 7.4696 0.02994 11.48 25.803-18.894-33.843-25.797-19.238 0.0026z" fill="#38b79a"/><path d="m43.653 41.708 7.9254 5.7693-20.35 16.884 20.651 15.776 11.987-0.22723 10.89-7.9811 0.02817 11.481-7.0917 5.1891-19.864 0.01093-34.014-24.091z" fill="#030c30"/></g><path d="m46.879 48.628 12.285 32.41" fill="none" stroke-width="0"/><circle cx="53.042" cy="65.037" r="8.516" fill="#030c30" fill-rule="evenodd"/></g><text transform="matrix(1.3731 0 0 1.3731 -92.992 -23.471)" x="117.61762" y="52.85672" fill="#030c30" fill-rule="evenodd" font-family="Ramabhadra" font-size="25.4px" stroke-width="0" style="font-variant-caps:normal;font-variant-east-asian:normal;font-variant-ligatures:normal;font-variant-numeric:normal;inline-size:134.348;white-space:pre" xml:space="preserve"><tspan x="117.61762" y="52.85672">DataSight</tspan></text><g transform="matrix(.63372 0 0 .63372 4.4139 -22.786)" stroke-width="1.578"><g fill-rule="evenodd"><circle transform="rotate(90)" cx="60.028" cy="-89.688" r="4" fill="#030c30"/><circle transform="rotate(90)" cx="70.028" cy="-89.688" r="4" fill="#38b79a"/><circle transform="rotate(90)" cx="55.028" cy="-100.69" r="4" fill="#030c30"/><circle transform="rotate(90)" cx="65.028" cy="-100.69" r="4" fill="#38b79a"/><circle transform="rotate(90)" cx="75.028" cy="-100.69" r="4" fill="#030c30"/><circle transform="rotate(90)" cx="55.028" cy="-78.687" r="4" fill="#030c30"/><circle transform="rotate(90)" cx="65.028" cy="-78.687" r="4" fill="#38b79a"/><circle transform="rotate(90)" cx="75.028" cy="-78.687" r="4" fill="#030c30"/><circle transform="rotate(90)" cx="80.028" cy="-89.688" r="4" fill="#38b79a"/></g></g></g></svg>
